<svg width="25" height="24" viewBox="0 0 25 24" fill="none" xmlns="http://www.w3.org/2000/svg">
<g clip-path="url(#clip0_858_5356)">
<path fill-rule="evenodd" clip-rule="evenodd" d="M24.5 12C24.5 18.6274 19.1274 24 12.5 24C5.87258 24 0.5 18.6274 0.5 12C0.5 5.37258 5.87258 0 12.5 0C19.1274 0 24.5 5.37258 24.5 12ZM12.6609 7.16633C13.8245 7.14869 14.949 7.57785 15.7917 8.36563L18.1217 6.08167C16.6463 4.72365 14.6881 3.97702 12.6609 4.00054C9.57521 4.00054 6.75352 5.70555 5.36808 8.40984C4.21069 10.6701 4.21064 13.3335 5.36792 15.5938C6.75336 18.2951 9.57521 20 12.661 20C14.8621 20 16.7183 19.2916 18.0707 18.0688L18.0692 18.0676C19.6128 16.6743 20.5 14.6172 20.5 12.184C20.5 11.6402 20.455 11.0935 20.359 10.5585H12.6611V13.639H17.0693C16.8864 14.6326 16.2987 15.5115 15.438 16.07V16.0718C14.7067 16.5586 13.7631 16.8342 12.6639 16.8342C10.5348 16.8342 8.72955 15.4262 8.08182 13.5332L8.07904 13.5332C7.73718 12.5397 7.73718 11.4631 8.07904 10.4696C8.72398 8.574 10.5321 7.16633 12.6609 7.16633Z" fill="#CF4F4C"/>
</g>
<defs>
<clipPath id="clip0_858_5356">
<rect width="24" height="24" fill="white" transform="translate(0.5)"/>
</clipPath>
</defs>
</svg>
