<svg width="23" height="21" viewBox="0 0 23 21" fill="none" xmlns="http://www.w3.org/2000/svg">
<path fill-rule="evenodd" clip-rule="evenodd" d="M0.0825195 6.94089C0.0825195 3.65936 2.39263 0.448242 6.07418 0.448242C7.78064 0.448242 8.99888 0.928943 9.93372 1.65477C10.3773 1.99914 10.7479 2.39533 11.0646 2.78199C11.3778 2.39615 11.7447 2.00005 12.1843 1.65664C13.1175 0.927492 14.3377 0.448242 16.0603 0.448242C19.784 0.448242 22.0519 3.66473 22.0519 6.94089C22.0519 10.2783 20.3801 13.1332 18.2857 15.361C16.188 17.5923 13.5867 19.2834 11.5138 20.3202C11.2327 20.4608 10.9018 20.4608 10.6206 20.3202C8.54772 19.2834 5.94646 17.5923 3.84879 15.361C1.75434 13.1332 0.0825195 10.2783 0.0825195 6.94089ZM6.07418 2.44598C3.76407 2.44598 2.07974 4.47355 2.07974 6.94089C2.07974 9.58241 3.40375 11.9715 5.30374 13.9925C7.05611 15.8564 9.23101 17.3318 11.0672 18.3035C12.9035 17.3318 15.0783 15.8564 16.8307 13.9925C18.7307 11.9715 20.0547 9.58241 20.0547 6.94089C20.0547 4.46817 18.4033 2.44598 16.0603 2.44598C14.7495 2.44598 13.9702 2.79625 13.4137 3.23102C12.898 3.63398 12.5388 4.1251 12.1107 4.71045C12.0328 4.81703 11.9526 4.92674 11.8687 5.03961C11.6803 5.29315 11.3831 5.44259 11.0672 5.44259C10.7514 5.44259 10.4542 5.29315 10.2658 5.03961C10.1941 4.94312 10.1248 4.84876 10.057 4.75655C9.61578 4.15584 9.24143 3.64622 8.70908 3.23288C8.14485 2.7948 7.36356 2.44598 6.07418 2.44598Z" fill="#72716E"/>
</svg>
