<svg width="22" height="22" viewBox="0 0 22 22" fill="none" xmlns="http://www.w3.org/2000/svg">
<path d="M14.9 13.5L10.9 9.5L6.9 13.5L5.3 12.7L10.9 7.1L16.5 12.7L14.9 13.5Z" fill="#CF4F4C"/>
<path d="M10.75 -9.39795e-07C16.68 -4.21378e-07 21.5 4.82 21.5 10.75C21.5 16.68 16.68 21.5 10.75 21.5C4.82 21.5 4.21378e-07 16.68 9.39795e-07 10.75C1.45821e-06 4.82 4.82 -1.45821e-06 10.75 -9.39795e-07ZM10.75 20C15.85 20 20 15.85 20 10.75C20 5.65 15.85 1.5 10.75 1.5C5.65 1.5 1.5 5.65 1.5 10.75C1.5 15.85 5.65 20 10.75 20Z" fill="#DFDFE6"/>
</svg>
