<svg width="40" height="40" viewBox="0 0 40 40" fill="none" xmlns="http://www.w3.org/2000/svg">
<circle cx="20" cy="20" r="20" fill="#CF4F4C"/>
<path d="M27 15.3333H23.5C23.5 13.4917 21.9338 12 20 12C18.0662 12 16.5 13.4917 16.5 15.3333H14.75C13.7875 15.3333 13 15.3333 13 15.3333V27C13 27.9167 13 28.6667 13 28.6667H25.25C26.2125 28.6667 27 28.6667 27 28.6667V17C27 16.0833 27 15.3333 27 15.3333ZM20 13.6667C20.9625 13.6667 21.75 14.4167 21.75 15.3333H18.25C18.25 14.4167 19.0375 13.6667 20 13.6667ZM25.25 27H14.75V17H16.5V18.6667H17.375H18.25V17H21.75V18.6667H22.625H23.5V17H25.25V27Z" fill="white"/>
</svg>
