<svg width="60" height="60" viewBox="0 0 60 60" fill="none" xmlns="http://www.w3.org/2000/svg">
<rect width="60" height="60" rx="30" fill="#F5F3F0"/>
<path fill-rule="evenodd" clip-rule="evenodd" d="M25 33C25 34.1046 25.8954 35 27 35C28.1046 35 29 34.1046 29 33C29 31.8954 28.1046 31 27 31C25.8954 31 25 31.8954 25 33ZM27 37C24.7909 37 23 35.2091 23 33C23 31.1362 24.2748 29.5701 26 29.126L26 25.874C24.2748 25.4299 23 23.8638 23 22C23 19.7909 24.7909 18 27 18C29.2091 18 31 19.7909 31 22C31 23.8638 29.7252 25.4299 28 25.874L28 29.126C29.4056 29.4878 30.5122 30.5944 30.874 32L34.126 32C34.5701 30.2748 36.1362 29 38 29C40.2091 29 42 30.7909 42 33C42 35.2091 40.2091 37 38 37C36.1362 37 34.5701 35.7252 34.126 34L30.874 34C30.4299 35.7252 28.8638 37 27 37ZM36 33C36 34.1046 36.8954 35 38 35C39.1046 35 40 34.1046 40 33C40 31.8954 39.1046 31 38 31C36.8954 31 36 31.8954 36 33ZM27 24C25.8954 24 25 23.1046 25 22C25 20.8954 25.8954 20 27 20C28.1046 20 29 20.8954 29 22C29 23.1046 28.1046 24 27 24Z" fill="#CF4F4C"/>
</svg>
