<svg width="60" height="60" viewBox="0 0 60 60" fill="none" xmlns="http://www.w3.org/2000/svg">
<rect width="60" height="60" rx="30" fill="#F5F3F0"/>
<path fill-rule="evenodd" clip-rule="evenodd" d="M27 24.5C25.6193 24.5 24.5 23.3807 24.5 22C24.5 20.6193 25.6193 19.5 27 19.5C28.3807 19.5 29.5 20.6193 29.5 22C29.5 23.3807 28.3807 24.5 27 24.5ZM23.5 22C23.5 23.7632 24.8039 25.2219 26.5 25.4646L26.5 29.5354C24.8039 29.7781 23.5 31.2368 23.5 33C23.5 34.933 25.067 36.5 27 36.5C28.7632 36.5 30.2219 35.1961 30.4646 33.5H34.5354C34.7781 35.1961 36.2368 36.5 38 36.5C39.933 36.5 41.5 34.933 41.5 33C41.5 31.067 39.933 29.5 38 29.5C36.2368 29.5 34.7781 30.8039 34.5354 32.5H30.4646C30.2453 30.9672 29.0328 29.7547 27.5 29.5354V25.4646C29.1961 25.2219 30.5 23.7632 30.5 22C30.5 20.067 28.933 18.5 27 18.5C25.067 18.5 23.5 20.067 23.5 22ZM24.5 33C24.5 34.3807 25.6193 35.5 27 35.5C28.3807 35.5 29.5 34.3807 29.5 33C29.5 31.6193 28.3807 30.5 27 30.5C25.6193 30.5 24.5 31.6193 24.5 33ZM35.5 33C35.5 34.3807 36.6193 35.5 38 35.5C39.3807 35.5 40.5 34.3807 40.5 33C40.5 31.6193 39.3807 30.5 38 30.5C36.6193 30.5 35.5 31.6193 35.5 33Z" fill="#1E1E1E"/>
</svg>
