<svg width="16" height="16" viewBox="0 0 16 16" fill="none" xmlns="http://www.w3.org/2000/svg">
<path d="M12.2244 6.33133C12.5078 6.0467 12.5069 5.58622 12.2222 5.30281C11.9376 5.01941 11.4771 5.0204 11.1937 5.30503L6.99744 9.51943L4.58335 7.13894C4.29735 6.85692 3.83688 6.86014 3.55486 7.14615C3.27284 7.43215 3.27607 7.89262 3.56207 8.17464L6.4915 11.0633C6.77652 11.3444 7.23508 11.3423 7.51751 11.0586L12.2244 6.33133Z" fill="#CF4F4C"/>
<path fill-rule="evenodd" clip-rule="evenodd" d="M8 0C3.58172 0 0 3.58172 0 8C0 12.4183 3.58172 16 8 16C12.4183 16 16 12.4183 16 8C16 3.58172 12.4183 0 8 0ZM1.45455 8C1.45455 4.38505 4.38505 1.45455 8 1.45455C11.615 1.45455 14.5455 4.38505 14.5455 8C14.5455 11.615 11.615 14.5455 8 14.5455C4.38505 14.5455 1.45455 11.615 1.45455 8Z" fill="#CF4F4C"/>
</svg>
