<svg width="25" height="25" viewBox="0 0 25 25" fill="none" xmlns="http://www.w3.org/2000/svg">
<rect width="25" height="25" rx="12.5" fill="#F5F3F0"/>
<path fill-rule="evenodd" clip-rule="evenodd" d="M14.8438 7.34375H10.1562C10.0319 7.34375 9.9127 7.29436 9.82479 7.20646C9.73689 7.11855 9.6875 6.99932 9.6875 6.875C9.6875 6.75068 9.73689 6.63145 9.82479 6.54354C9.9127 6.45564 10.0319 6.40625 10.1562 6.40625H14.8438C14.9681 6.40625 15.0873 6.45564 15.1752 6.54354C15.2631 6.63145 15.3125 6.75068 15.3125 6.875C15.3125 6.99932 15.2631 7.11855 15.1752 7.20646C15.0873 7.29436 14.9681 7.34375 14.8438 7.34375ZM17.3793 8.32189C17.4391 8.34853 17.4926 8.38738 17.5364 8.43594C17.5808 8.48422 17.6147 8.54129 17.6357 8.60347C17.6566 8.66564 17.6644 8.73153 17.6583 8.79688L16.8005 17.3188C16.7677 17.6685 16.6052 17.9933 16.3449 18.2293C16.0847 18.4653 15.7455 18.5953 15.3942 18.5938H9.61452C9.26248 18.5952 8.92272 18.4645 8.66235 18.2276C8.40198 17.9906 8.23995 17.6647 8.20827 17.3141L7.34577 8.79688C7.33969 8.73153 7.34739 8.66564 7.36838 8.60347C7.38938 8.54129 7.42319 8.48422 7.46764 8.43594C7.51147 8.38738 7.56497 8.34853 7.62471 8.32189C7.68445 8.29525 7.74911 8.2814 7.81452 8.28125H17.1895C17.2549 8.2814 17.3196 8.29525 17.3793 8.32189ZM15.7116 17.5342C15.7984 17.4552 15.8524 17.3466 15.863 17.2297L16.6692 9.21875H8.33483L9.14108 17.225C9.15053 17.3427 9.20405 17.4525 9.29096 17.5325C9.37786 17.6124 9.49174 17.6566 9.60983 17.6562H15.3942C15.5116 17.6567 15.6248 17.6132 15.7116 17.5342ZM11.0938 15.7812C11.2181 15.7812 11.3373 15.7319 11.4252 15.644C11.5131 15.556 11.5625 15.4368 11.5625 15.3125V11.5625C11.5625 11.4382 11.5131 11.319 11.4252 11.231C11.3373 11.1431 11.2181 11.0938 11.0938 11.0938C10.9694 11.0938 10.8502 11.1431 10.7623 11.231C10.6744 11.319 10.625 11.4382 10.625 11.5625V15.3125C10.625 15.4368 10.6744 15.556 10.7623 15.644C10.8502 15.7319 10.9694 15.7812 11.0938 15.7812ZM14.2377 15.644C14.1498 15.7319 14.0306 15.7812 13.9062 15.7812C13.7819 15.7812 13.6627 15.7319 13.5748 15.644C13.4869 15.556 13.4375 15.4368 13.4375 15.3125V11.5625C13.4375 11.4382 13.4869 11.319 13.5748 11.231C13.6627 11.1431 13.7819 11.0938 13.9062 11.0938C14.0306 11.0938 14.1498 11.1431 14.2377 11.231C14.3256 11.319 14.375 11.4382 14.375 11.5625V15.3125C14.375 15.4368 14.3256 15.556 14.2377 15.644Z" fill="#72716E"/>
</svg>
