<svg width="41" height="40" viewBox="0 0 41 40" fill="none" xmlns="http://www.w3.org/2000/svg">
<circle cx="20.3555" cy="20" r="20" fill="black"/>
<g clip-path="url(#clip0_38_6452)">
<rect width="21" height="20" transform="translate(10.3555 9)" fill="black"/>
<path d="M27.8555 14.0003H24.3555C24.3555 12.1587 22.7892 10.667 20.8555 10.667C18.9217 10.667 17.3555 12.1587 17.3555 14.0003H15.6055C14.643 14.0003 13.8555 14.0003 13.8555 14.0003V25.667C13.8555 26.5837 13.8555 27.3337 13.8555 27.3337H26.1055C27.068 27.3337 27.8555 27.3337 27.8555 27.3337V15.667C27.8555 14.7503 27.8555 14.0003 27.8555 14.0003ZM20.8555 12.3337C21.818 12.3337 22.6055 13.0837 22.6055 14.0003H19.1055C19.1055 13.0837 19.893 12.3337 20.8555 12.3337ZM26.1055 25.667H15.6055V15.667H17.3555V17.3337H18.2305H19.1055V15.667H22.6055V17.3337H23.4805H24.3555V15.667H26.1055V25.667Z" fill="white"/>
</g>
<defs>
<clipPath id="clip0_38_6452">
<rect width="21" height="20" fill="white" transform="translate(10.3555 9)"/>
</clipPath>
</defs>
</svg>
